<svg width="27" height="24" viewBox="0 0 27 24" fill="none" xmlns="http://www.w3.org/2000/svg">
<path d="M24.8305 8.11696L23.0635 2.81596C22.8072 2.04416 22.3141 1.37278 21.6544 0.897196C20.9947 0.421615 20.2019 0.166027 19.3887 0.16675H7.61127C6.79802 0.166027 6.00523 0.421615 5.34554 0.897196C4.68585 1.37278 4.19281 2.04416 3.93648 2.81596L2.16948 8.11696C1.6996 8.31357 1.29833 8.6447 1.01611 9.06872C0.733887 9.49274 0.583312 9.99073 0.583313 10.5001V16.9584C0.583313 17.9117 1.10515 18.7358 1.87498 19.184V22.1251C1.87498 22.4677 2.01107 22.7962 2.2533 23.0384C2.49553 23.2807 2.82408 23.4168 3.16665 23.4168H4.45831C4.80088 23.4168 5.12942 23.2807 5.37166 23.0384C5.61389 22.7962 5.74998 22.4677 5.74998 22.1251V19.5417H21.25V22.1251C21.25 22.4677 21.3861 22.7962 21.6283 23.0384C21.8705 23.2807 22.1991 23.4168 22.5416 23.4168H23.8333C24.1759 23.4168 24.5044 23.2807 24.7467 23.0384C24.9889 22.7962 25.125 22.4677 25.125 22.1251V19.184C25.5169 18.9592 25.8426 18.6352 26.0694 18.2445C26.2961 17.8537 26.4159 17.4102 26.4166 16.9584V10.5001C26.4166 9.99073 26.2661 9.49274 25.9839 9.06872C25.7016 8.6447 25.3004 8.31357 24.8305 8.11696ZM7.61127 2.75008H19.3874C19.9441 2.75008 20.4375 3.104 20.6132 3.63358L22.0418 7.91675H4.95819L6.38548 3.63358C6.47118 3.37628 6.6357 3.15247 6.85571 2.99389C7.07572 2.83532 7.34007 2.75002 7.61127 2.75008ZM5.10415 15.6667C4.84963 15.6667 4.59761 15.6164 4.3625 15.519C4.12739 15.4215 3.91377 15.2787 3.73386 15.0986C3.55395 14.9186 3.41125 14.7049 3.31393 14.4697C3.21661 14.2345 3.16656 13.9825 3.16665 13.728C3.16673 13.4734 3.21695 13.2214 3.31443 12.9863C3.41191 12.7512 3.55474 12.5376 3.73477 12.3577C3.91481 12.1778 4.12851 12.0351 4.36369 11.9377C4.59887 11.8404 4.85092 11.7904 5.10544 11.7905C5.61947 11.7906 6.11237 11.995 6.47573 12.3586C6.83908 12.7222 7.04311 13.2152 7.04294 13.7292C7.04277 14.2433 6.83841 14.7362 6.47481 15.0995C6.11122 15.4629 5.61818 15.6669 5.10415 15.6667ZM21.8958 15.6667C21.6413 15.6667 21.3893 15.6164 21.1542 15.519C20.9191 15.4215 20.7054 15.2787 20.5255 15.0986C20.3456 14.9186 20.2029 14.7049 20.1056 14.4697C20.0083 14.2345 19.9582 13.9825 19.9583 13.728C19.9584 13.4734 20.0086 13.2214 20.1061 12.9863C20.2036 12.7512 20.3464 12.5376 20.5264 12.3577C20.7065 12.1778 20.9202 12.0351 21.1554 11.9377C21.3905 11.8404 21.6426 11.7904 21.8971 11.7905C22.4111 11.7906 22.904 11.995 23.2674 12.3586C23.6307 12.7222 23.8348 13.2152 23.8346 13.7292C23.8344 14.2433 23.6301 14.7362 23.2665 15.0995C22.9029 15.4629 22.4098 15.6669 21.8958 15.6667Z" fill="#807D79"/>
</svg>
