<svg width="27" height="27" viewBox="0 0 27 27" fill="none" xmlns="http://www.w3.org/2000/svg">
<path d="M25.3125 0C26.2459 0 27 0.755684 27 1.6875C27 2.61932 26.2459 3.375 25.3125 3.375V23.625C26.2459 23.625 27 24.3791 27 25.3125C27 26.2459 26.2459 27 25.3125 27H16.0312V23.625H10.9688V27H1.6875C0.755684 27 0 26.2459 0 25.3125C0 24.3791 0.755684 23.625 1.6875 23.625V3.375C0.755684 3.375 0 2.61932 0 1.6875C0 0.755684 0.755684 0 1.6875 0H25.3125ZM5.90625 5.0625C5.44219 5.0625 5.0625 5.44219 5.0625 5.90625V7.59375C5.0625 8.05781 5.44219 8.4375 5.90625 8.4375H7.59375C8.05781 8.4375 8.4375 8.05781 8.4375 7.59375V5.90625C8.4375 5.44219 8.05781 5.0625 7.59375 5.0625H5.90625ZM11.8125 7.59375C11.8125 8.05781 12.1922 8.4375 12.6562 8.4375H14.3438C14.8078 8.4375 15.1875 8.05781 15.1875 7.59375V5.90625C15.1875 5.44219 14.8078 5.0625 14.3438 5.0625H12.6562C12.1922 5.0625 11.8125 5.44219 11.8125 5.90625V7.59375ZM19.4062 5.0625C18.9422 5.0625 18.5625 5.44219 18.5625 5.90625V7.59375C18.5625 8.05781 18.9422 8.4375 19.4062 8.4375H21.0938C21.5578 8.4375 21.9375 8.05781 21.9375 7.59375V5.90625C21.9375 5.44219 21.5578 5.0625 21.0938 5.0625H19.4062ZM5.0625 12.6562C5.0625 13.1203 5.44219 13.5 5.90625 13.5H7.59375C8.05781 13.5 8.4375 13.1203 8.4375 12.6562V10.9688C8.4375 10.5047 8.05781 10.125 7.59375 10.125H5.90625C5.44219 10.125 5.0625 10.5047 5.0625 10.9688V12.6562ZM12.6562 10.125C12.1922 10.125 11.8125 10.5047 11.8125 10.9688V12.6562C11.8125 13.1203 12.1922 13.5 12.6562 13.5H14.3438C14.8078 13.5 15.1875 13.1203 15.1875 12.6562V10.9688C15.1875 10.5047 14.8078 10.125 14.3438 10.125H12.6562ZM18.5625 12.6562C18.5625 13.1203 18.9422 13.5 19.4062 13.5H21.0938C21.5578 13.5 21.9375 13.1203 21.9375 12.6562V10.9688C21.9375 10.5047 21.5578 10.125 21.0938 10.125H19.4062C18.9422 10.125 18.5625 10.5047 18.5625 10.9688V12.6562ZM13.5 15.1875C11.1375 15.1875 9.14941 16.8064 8.54824 18.9949C8.42168 19.6752 9.00176 20.25 9.70312 20.25H17.2969C17.9982 20.25 18.5783 19.6752 18.4043 18.9949C17.8506 16.8064 15.8625 15.1875 13.5 15.1875Z" fill="#807D79"/>
</svg>
