<svg width="28" height="29" viewBox="0 0 28 29" fill="none" xmlns="http://www.w3.org/2000/svg">
<path d="M25.125 11.9166V9.33329C25.1245 8.88027 25.0049 8.43533 24.7782 8.04312C24.5515 7.65091 24.2257 7.32522 23.8333 7.0987L14.7917 1.93204C14.399 1.7053 13.9535 1.58594 13.5 1.58594C13.0465 1.58594 12.601 1.7053 12.2083 1.93204L3.16667 7.0987C2.77434 7.32522 2.44847 7.65091 2.22176 8.04312C1.99505 8.43533 1.87546 8.88027 1.875 9.33329V19.6666C1.87546 20.1196 1.99505 20.5646 2.22176 20.9568C2.44847 21.349 2.77434 21.6747 3.16667 21.9012L12.2083 27.0679C12.601 27.2946 13.0465 27.414 13.5 27.414C13.9535 27.414 14.399 27.2946 14.7917 27.0679L17.375 25.5954L25.125 11.9166ZM19.3125 11.1416L7.75208 4.47662L19.3125 11.1416ZM13.5 14.5V27.4166V14.5ZM2.24958 8.04162L13.5 14.5L2.24958 8.04162ZM13.5 14.5L24.7504 8.04162L13.5 14.5Z" stroke="#807D79" stroke-width="2" stroke-linecap="round" stroke-linejoin="round"/>
<path d="M21.8958 22.2498C23.6792 22.2498 25.125 20.8041 25.125 19.0207C25.125 17.2373 23.6792 15.7915 21.8958 15.7915C20.1124 15.7915 18.6667 17.2373 18.6667 19.0207C18.6667 20.8041 20.1124 22.2498 21.8958 22.2498Z" stroke="#807D79" stroke-width="2" stroke-linecap="round" stroke-linejoin="round"/>
<path d="M24.1821 21.3071L26.4167 23.5417" stroke="#807D79" stroke-width="2" stroke-linecap="round" stroke-linejoin="round"/>
</svg>
