<svg width="25" height="27" viewBox="0 0 25 27" fill="none" xmlns="http://www.w3.org/2000/svg">
<path fill-rule="evenodd" clip-rule="evenodd" d="M16.875 23.6092C15.4663 23.7083 13.9554 23.7083 12.4417 23.7083C10.9629 23.7083 9.49438 23.7083 8.12501 23.6165V26.625H3.75001V25.1667L4.78688 23.0915C2.42293 22.4046 0.833344 20.9521 0.833344 17.875V6.20833C0.833344 0.375 6.60105 0.375 12.5 0.375C18.399 0.375 24.1667 0.375 24.1667 6.20833V17.875C24.1667 20.9258 22.5698 22.3813 20.2044 23.0754L21.25 25.1667V26.625H16.875V23.6092ZM5.20834 19.3333C5.59512 19.3333 5.96605 19.1797 6.23954 18.9062C6.51303 18.6327 6.66668 18.2618 6.66668 17.875C6.66668 17.4882 6.51303 17.1173 6.23954 16.8438C5.96605 16.5703 5.59512 16.4167 5.20834 16.4167C4.82157 16.4167 4.45064 16.5703 4.17715 16.8438C3.90366 17.1173 3.75001 17.4882 3.75001 17.875C3.75001 18.2618 3.90366 18.6327 4.17715 18.9062C4.45064 19.1797 4.82157 19.3333 5.20834 19.3333ZM19.7917 19.3333C20.1784 19.3333 20.5494 19.1797 20.8229 18.9062C21.0964 18.6327 21.25 18.2618 21.25 17.875C21.25 17.4882 21.0964 17.1173 20.8229 16.8438C20.5494 16.5703 20.1784 16.4167 19.7917 16.4167C19.4049 16.4167 19.034 16.5703 18.7605 16.8438C18.487 17.1173 18.3333 17.4882 18.3333 17.875C18.3333 18.2618 18.487 18.6327 18.7605 18.9062C19.034 19.1797 19.4049 19.3333 19.7917 19.3333ZM3.75001 4.75V13.5H21.25V4.75H3.75001Z" fill="#807D79"/>
</svg>
