<svg width="88" height="16" viewBox="0 0 88 16" fill="none" xmlns="http://www.w3.org/2000/svg">
<path d="M7.46 12.1V15H5.72C4.48 15 3.51333 14.7 2.82 14.1C2.12667 13.4867 1.78 12.4933 1.78 11.12V6.68H0.42V3.84H1.78V1.12H5.2V3.84H7.44V6.68H5.2V11.16C5.2 11.4933 5.28 11.7333 5.44 11.88C5.6 12.0267 5.86667 12.1 6.24 12.1H7.46ZM12.785 5.7C13.185 5.08667 13.685 4.60667 14.285 4.26C14.885 3.9 15.5517 3.72 16.285 3.72V7.34H15.345C14.4917 7.34 13.8517 7.52667 13.425 7.9C12.9983 8.26 12.785 8.9 12.785 9.82V15H9.365V3.84H12.785V5.7ZM17.2397 9.4C17.2397 8.25333 17.453 7.24667 17.8797 6.38C18.3197 5.51333 18.913 4.84667 19.6597 4.38C20.4064 3.91333 21.2397 3.68 22.1597 3.68C22.9464 3.68 23.633 3.84 24.2197 4.16C24.8197 4.48 25.2797 4.9 25.5997 5.42V3.84H29.0197V15H25.5997V13.42C25.2664 13.94 24.7997 14.36 24.1997 14.68C23.613 15 22.9264 15.16 22.1397 15.16C21.233 15.16 20.4064 14.9267 19.6597 14.46C18.913 13.98 18.3197 13.3067 17.8797 12.44C17.453 11.56 17.2397 10.5467 17.2397 9.4ZM25.5997 9.42C25.5997 8.56667 25.3597 7.89333 24.8797 7.4C24.413 6.90667 23.8397 6.66 23.1597 6.66C22.4797 6.66 21.8997 6.90667 21.4197 7.4C20.953 7.88 20.7197 8.54667 20.7197 9.4C20.7197 10.2533 20.953 10.9333 21.4197 11.44C21.8997 11.9333 22.4797 12.18 23.1597 12.18C23.8397 12.18 24.413 11.9333 24.8797 11.44C25.3597 10.9467 25.5997 10.2733 25.5997 9.42ZM36.5139 11.8L38.9339 3.84H42.5739L38.6139 15H34.3939L30.4339 3.84H34.0939L36.5139 11.8ZM54.5334 9.24C54.5334 9.56 54.5134 9.89333 54.4734 10.24H46.7334C46.7868 10.9333 47.0068 11.4667 47.3934 11.84C47.7934 12.2 48.2801 12.38 48.8534 12.38C49.7068 12.38 50.3001 12.02 50.6334 11.3H54.2734C54.0868 12.0333 53.7468 12.6933 53.2534 13.28C52.7734 13.8667 52.1668 14.3267 51.4334 14.66C50.7001 14.9933 49.8801 15.16 48.9734 15.16C47.8801 15.16 46.9068 14.9267 46.0534 14.46C45.2001 13.9933 44.5334 13.3267 44.0534 12.46C43.5734 11.5933 43.3334 10.58 43.3334 9.42C43.3334 8.26 43.5668 7.24667 44.0334 6.38C44.5134 5.51333 45.1801 4.84667 46.0334 4.38C46.8868 3.91333 47.8668 3.68 48.9734 3.68C50.0534 3.68 51.0134 3.90667 51.8534 4.36C52.6934 4.81333 53.3468 5.46 53.8134 6.3C54.2934 7.14 54.5334 8.12 54.5334 9.24ZM51.0334 8.34C51.0334 7.75333 50.8334 7.28667 50.4334 6.94C50.0334 6.59333 49.5334 6.42 48.9334 6.42C48.3601 6.42 47.8734 6.58667 47.4734 6.92C47.0868 7.25333 46.8468 7.72667 46.7534 8.34H51.0334ZM59.7577 0.2V15H56.3377V0.2H59.7577ZM65.6561 0.2V15H62.2361V0.2H65.6561ZM78.6545 9.24C78.6545 9.56 78.6345 9.89333 78.5945 10.24H70.8545C70.9079 10.9333 71.1279 11.4667 71.5145 11.84C71.9145 12.2 72.4012 12.38 72.9745 12.38C73.8279 12.38 74.4212 12.02 74.7545 11.3H78.3945C78.2079 12.0333 77.8679 12.6933 77.3745 13.28C76.8945 13.8667 76.2879 14.3267 75.5545 14.66C74.8212 14.9933 74.0012 15.16 73.0945 15.16C72.0012 15.16 71.0279 14.9267 70.1745 14.46C69.3212 13.9933 68.6545 13.3267 68.1745 12.46C67.6945 11.5933 67.4545 10.58 67.4545 9.42C67.4545 8.26 67.6879 7.24667 68.1545 6.38C68.6345 5.51333 69.3012 4.84667 70.1545 4.38C71.0079 3.91333 71.9879 3.68 73.0945 3.68C74.1745 3.68 75.1345 3.90667 75.9745 4.36C76.8145 4.81333 77.4679 5.46 77.9345 6.3C78.4145 7.14 78.6545 8.12 78.6545 9.24ZM75.1545 8.34C75.1545 7.75333 74.9545 7.28667 74.5545 6.94C74.1545 6.59333 73.6545 6.42 73.0545 6.42C72.4812 6.42 71.9945 6.58667 71.5945 6.92C71.2079 7.25333 70.9679 7.72667 70.8745 8.34H75.1545ZM83.8788 5.7C84.2788 5.08667 84.7788 4.60667 85.3788 4.26C85.9788 3.9 86.6454 3.72 87.3788 3.72V7.34H86.4388C85.5854 7.34 84.9454 7.52667 84.5188 7.9C84.0921 8.26 83.8788 8.9 83.8788 9.82V15H80.4588V3.84H83.8788V5.7Z" fill="#0070C0" fill-opacity="0.9"/>
</svg>
