<svg width="14" height="13" viewBox="0 0 14 13" fill="none" xmlns="http://www.w3.org/2000/svg">
<path d="M12.3333 3.00004H10.3333V1.66671C10.3333 0.926707 9.74 0.333374 9 0.333374H5C4.25999 0.333374 3.66666 0.926707 3.66666 1.66671V3.00004H1.66666C0.926662 3.00004 0.333328 3.59337 0.333328 4.33337V11.6667C0.333328 12.4067 0.926662 13 1.66666 13H12.3333C13.0733 13 13.6667 12.4067 13.6667 11.6667V4.33337C13.6667 3.59337 13.0733 3.00004 12.3333 3.00004ZM5 1.66671H9V3.00004H5V1.66671ZM12.3333 11.6667H1.66666V10.3334H12.3333V11.6667ZM12.3333 8.33337H1.66666V4.33337H3.66666V5.66671H5V4.33337H9V5.66671H10.3333V4.33337H12.3333V8.33337Z" fill="black"/>
</svg>
