<svg width="113" height="181" viewBox="0 0 113 181" fill="none" xmlns="http://www.w3.org/2000/svg">
<g opacity="0.4" filter="url(#filter0_f_41_1494)">
<path fill-rule="evenodd" clip-rule="evenodd" d="M25.5816 170.766H87.7372C92.041 170.766 97.1657 170.985 97.1657 171.255C97.1657 171.525 91.6927 171.743 87.7372 171.743H25.5816C21.2156 171.743 15.6431 171.525 15.6431 171.255C15.6431 170.985 21.1285 170.766 25.5816 170.766Z" fill="url(#paint0_linear_41_1494)"/>
</g>
<g opacity="0.1" filter="url(#filter1_f_41_1494)">
<path fill-rule="evenodd" clip-rule="evenodd" d="M20.2449 170.509H93.209C96.9188 170.509 104.285 170.856 104.285 171.28C104.285 171.705 97.4885 172.052 91.7648 172.052H20.2449C15.4619 172.052 8.58551 171.705 8.58551 171.28C8.58551 170.856 15.2499 170.509 20.2449 170.509Z" fill="url(#paint1_linear_41_1494)"/>
</g>
<path fill-rule="evenodd" clip-rule="evenodd" d="M14.1441 29.6718V23.5647L14.3651 23.3589H14.9514V29.8775H14.3571L14.1441 29.6718ZM98.5357 39.6104H99.0886L99.6415 39.8932V59.2947L99.0886 59.5647H98.5357V39.6104ZM14.0643 35.7018V47.839L14.6171 48.109H14.8871V35.4189H14.6043L14.0643 35.7018ZM14.0643 63.5504V51.4133L14.6043 51.1304H14.8871V63.8204H14.6171L14.0643 63.5504Z" fill="#C0C0C0"/>
<mask id="mask0_41_1494" style="mask-type:alpha" maskUnits="userSpaceOnUse" x="14" y="23" width="86" height="41">
<path fill-rule="evenodd" clip-rule="evenodd" d="M14.1441 29.6718V23.5647L14.3651 23.3589H14.9514V29.8775H14.3571L14.1441 29.6718ZM98.5357 39.6104H99.0886L99.6415 39.8932V59.2947L99.0886 59.5647H98.5357V39.6104ZM14.0643 35.7018V47.839L14.6171 48.109H14.8871V35.4189H14.6043L14.0643 35.7018ZM14.0643 63.5504V51.4133L14.6043 51.1304H14.8871V63.8204H14.6171L14.0643 63.5504Z" fill="white"/>
</mask>
<g mask="url(#mask0_41_1494)">
<g opacity="0.3" filter="url(#filter2_f_41_1494)">
<path fill-rule="evenodd" clip-rule="evenodd" d="M13.7172 36.2547L14.8872 35.5732V34.1332L13.7172 34.8147V36.2547ZM13.7172 48.7261L14.8872 49.4075V47.9675L13.7172 47.2861V48.7261ZM13.7172 51.9533L14.8872 51.2718V49.8318L13.7172 50.5132V51.9533ZM13.7172 64.4376L14.8872 65.119V63.679L13.7172 62.9975V64.4376ZM98.7415 38.209V39.649L99.9114 40.3304V38.8904L98.7415 38.209ZM98.7415 60.9018L99.9114 60.2204V58.7804L98.7415 59.4618V60.9018ZM13.9229 23.7061H15.0929V22.2661H13.9229V23.7061ZM13.9229 31.0347H15.0929V29.5947H13.9229V31.0347Z" fill="black"/>
</g>
<path opacity="0.9" fill-rule="evenodd" clip-rule="evenodd" d="M14.54 24.211V28.9521C14.54 30.098 14.1263 30.0318 14.0505 30.0196C14.0428 30.0184 14.0386 30.0177 14.0386 30.0189V23.0889C14.0386 23.0889 14.54 23.1182 14.54 24.211ZM13.5243 34.7761H13.7943C14.2443 34.7761 14.6172 35.7018 14.6172 36.1518V47.4532C14.6172 47.9032 14.2443 48.8289 13.7943 48.8289H13.5243V34.7761ZM13.7943 50.4361H13.4986V64.4504H13.7943C14.2443 64.4504 14.6172 63.5246 14.6172 63.0746V51.7989C14.6172 51.3489 14.2443 50.4361 13.7943 50.4361ZM99.0885 40.2918C99.0885 39.8418 99.4614 38.9161 99.9115 38.9161H100.259V60.336H99.9115C99.4614 60.336 99.0885 59.4103 99.0885 58.9603V40.2918Z" fill="#EFEFEF"/>
<mask id="mask1_41_1494" style="mask-type:alpha" maskUnits="userSpaceOnUse" x="13" y="23" width="88" height="42">
<path fill-rule="evenodd" clip-rule="evenodd" d="M14.54 24.211V28.9521C14.54 30.098 14.1263 30.0318 14.0505 30.0196C14.0428 30.0184 14.0386 30.0177 14.0386 30.0189V23.0889C14.0386 23.0889 14.54 23.1182 14.54 24.211ZM13.5243 34.7761H13.7943C14.2443 34.7761 14.6172 35.7018 14.6172 36.1518V47.4532C14.6172 47.9032 14.2443 48.8289 13.7943 48.8289H13.5243V34.7761ZM13.7943 50.4361H13.4986V64.4504H13.7943C14.2443 64.4504 14.6172 63.5246 14.6172 63.0746V51.7989C14.6172 51.3489 14.2443 50.4361 13.7943 50.4361ZM99.0885 40.2918C99.0885 39.8418 99.4614 38.9161 99.9115 38.9161H100.259V60.336H99.9115C99.4614 60.336 99.0885 59.4103 99.0885 58.9603V40.2918Z" fill="white"/>
</mask>
<g mask="url(#mask1_41_1494)">
<g opacity="0.7" filter="url(#filter3_f_41_1494)">
<path fill-rule="evenodd" clip-rule="evenodd" d="M13.7172 23.6033L14.8872 23.0118V21.7133L13.7172 22.3047V23.6033ZM13.7172 30.8675L14.8872 31.459V30.1604L13.7172 29.5689V30.8675ZM13.7172 35.8433L14.8872 35.1618V33.7218L13.7172 34.4032V35.8433ZM13.7172 49.0732L14.5915 49.5875L13.7172 50.1018V51.5418L14.8872 50.8604V48.3275L13.7172 47.6461V49.0732ZM13.7172 64.7719L14.8872 65.4533V64.0133L13.7172 63.3319V64.7719ZM98.6772 38.209V39.649L99.8471 40.3304V38.8904L98.6772 38.209ZM98.6772 60.9661L99.8471 60.2847V58.8447L98.6772 59.5261V60.9661Z" fill="black"/>
</g>
<g opacity="0.2" filter="url(#filter4_f_41_1494)">
<path fill-rule="evenodd" clip-rule="evenodd" d="M13.7172 36.2547L14.8872 35.5732V34.1332L13.7172 34.8147V36.2547ZM13.7172 48.7261L14.8872 49.4075V47.9675L13.7172 47.2861V48.7261ZM13.7172 51.9532L14.8872 51.2718V49.8318L13.7172 50.5132V51.9532ZM13.7172 64.4375L14.8872 65.1189V63.6789L13.7172 62.9975V64.4375ZM98.7415 38.209V39.649L99.9114 40.3304V38.8904L98.7415 38.209ZM98.7415 60.9018L99.9114 60.2204V58.7804L98.7415 59.4618V60.9018ZM13.7172 23.8604L14.8872 23.179V21.739L13.7172 22.4204V23.8604ZM13.7172 30.7904L14.8872 31.5876V30.1476L13.7172 29.3504V30.7904Z" fill="black"/>
</g>
<g filter="url(#filter5_f_41_1494)">
<path fill-rule="evenodd" clip-rule="evenodd" d="M13.7172 36.1775L14.8872 35.4961V34.0561L13.7172 34.7375V36.1775ZM13.7172 48.829L14.8872 49.5104V48.0704L13.7172 47.389V48.829ZM13.7172 51.8504L14.8872 51.169V49.729L13.7172 50.4104V51.8504ZM13.7172 64.5404L14.8872 65.2218V63.7818L13.7172 63.1004V64.5404ZM98.7415 38.2733V39.6232L99.9114 40.3047V38.9547L98.7415 38.2733ZM98.7415 60.9018L99.9114 60.2204V58.7804L98.7415 59.4618V60.9018ZM13.7172 30.7647L14.8872 31.5233V30.0833L13.7172 29.3247V30.7647ZM13.7172 23.8347L14.8872 23.2818V21.8418L13.7172 22.3947V23.8347Z" fill="white"/>
</g>
</g>
<path fill-rule="evenodd" clip-rule="evenodd" d="M14.2571 23.9821V29.1289C14.2571 29.6914 14.0871 29.7224 14.0999 29.7095L13.7428 29.659V23.5518L14.0698 23.4678C14.0698 23.4678 14.2571 23.6205 14.2571 23.9821ZM13.1514 35.0204L13.4892 35.0673C14.0919 35.2722 14.2727 36.2466 14.2727 36.8312V46.7091C14.2727 47.129 14.2345 48.0912 13.6077 48.2218L13.1514 48.5976V35.0204ZM13.4016 50.7418H13.0544V64.241H13.4016C13.8516 64.241 14.2244 63.341 14.2244 62.891V52.0789C14.2244 51.6418 13.8644 50.7418 13.4016 50.7418ZM99.4202 41.0721C99.4202 40.5879 99.4403 39.6517 100.164 39.1347H100.597V59.989L100.024 59.6124C99.5246 59.5903 99.4202 58.9294 99.4202 58.3177V41.0721Z" fill="#D0D0D0"/>
<mask id="mask2_41_1494" style="mask-type:alpha" maskUnits="userSpaceOnUse" x="13" y="23" width="88" height="42">
<path fill-rule="evenodd" clip-rule="evenodd" d="M14.2571 23.9821V29.1289C14.2571 29.6914 14.0871 29.7224 14.0999 29.7095L13.7428 29.659V23.5518L14.0698 23.4678C14.0698 23.4678 14.2571 23.6205 14.2571 23.9821ZM13.1514 35.0204L13.4892 35.0673C14.0919 35.2722 14.2727 36.2466 14.2727 36.8312V46.7091C14.2727 47.129 14.2345 48.0912 13.6077 48.2218L13.1514 48.5976V35.0204ZM13.4016 50.7418H13.0544V64.241H13.4016C13.8516 64.241 14.2244 63.341 14.2244 62.891V52.0789C14.2244 51.6418 13.8644 50.7418 13.4016 50.7418ZM99.4202 41.0721C99.4202 40.5879 99.4403 39.6517 100.164 39.1347H100.597V59.989L100.024 59.6124C99.5246 59.5903 99.4202 58.9294 99.4202 58.3177V41.0721Z" fill="white"/>
</mask>
<g mask="url(#mask2_41_1494)">
<g opacity="0.4" filter="url(#filter6_f_41_1494)">
<rect x="12.9714" y="23.3076" width="0.942094" height="6.94286" fill="black"/>
</g>
<g opacity="0.4" filter="url(#filter7_f_41_1494)">
<rect x="12.5857" y="34.6069" width="1.32781" height="30.3415" fill="black"/>
</g>
<g opacity="0.4" filter="url(#filter8_f_41_1494)">
<rect x="100.006" y="34.6069" width="1.32771" height="30.3415" fill="black"/>
</g>
</g>
<path opacity="0.5" fill-rule="evenodd" clip-rule="evenodd" d="M13.9794 51.2351C13.9794 51.2351 14.2235 51.6791 14.2235 52.1773L14.2365 62.4446C14.2365 62.8946 14.1851 63.8203 13.7351 63.8203H13.7608C14.288 63.8075 14.3137 62.8946 14.3137 62.4446L14.3006 52.1874C14.2864 51.7334 14.2044 51.5445 14.0578 51.2452C14.0354 51.1993 13.9794 51.2351 13.9794 51.2351ZM13.9229 35.4923C14.1954 35.7515 14.27 36.508 14.27 36.9066V46.6689C14.27 47.1189 14.2186 48.0447 13.7686 48.0447H13.7943C14.3214 48.0318 14.3471 47.1189 14.3471 46.6689V36.9066C14.3351 36.5225 14.2505 35.745 13.9912 35.4923C13.9712 35.4729 13.9321 35.4579 13.9229 35.4923ZM99.4834 58.1889V41.0118C99.4834 40.6132 99.5605 39.8289 99.8048 39.6103C99.4834 39.7903 99.4191 40.6132 99.4191 41.0118V58.1889C99.4191 58.6389 99.4319 59.5518 99.9462 59.5646H99.972C99.5348 59.5646 99.4834 58.6518 99.4834 58.1889ZM99.9463 39.5461C99.8949 39.5461 99.8563 39.5718 99.8177 39.6104C99.8563 39.5846 99.8949 39.5718 99.9463 39.5718V39.5461ZM14.1286 29.7055C14.1465 29.7034 14.1365 29.7842 14.1522 29.7717C14.329 29.6311 14.337 29.1711 14.337 29.1711V24.0302C14.337 24.0302 14.329 23.6746 14.1783 23.4697C14.1481 23.4286 14.1307 23.5246 14.0979 23.4818C14.2486 23.6826 14.2599 24.0302 14.2599 24.0302V29.1711C14.2599 29.1711 14.2546 29.5427 14.1286 29.7055Z" fill="white"/>
<g style="mix-blend-mode:soft-light" opacity="0.6">
<rect x="-46.0428" y="-17.0638" width="205.714" height="205.714" fill="#E4E4E4"/>
</g>
</g>
<path fill-rule="evenodd" clip-rule="evenodd" d="M85.8585 171.537H61.5585C61.2757 171.357 60.0157 171.332 59.7585 171.332H53.96C53.69 171.332 52.43 171.357 52.16 171.537H27.86C19.6957 171.537 14.4886 166.459 14.4886 157.408V64.1547C14.6557 63.6789 14.7586 63.2932 14.7586 63.0489V51.8118C14.7586 51.5675 14.6557 51.1947 14.4886 50.8861V48.5075C14.6557 48.0318 14.7586 47.6461 14.7586 47.4018V36.1647C14.7586 35.9204 14.6557 35.5475 14.4886 35.2389V30.0832C14.6557 29.6589 14.6943 29.3118 14.6943 29.0804V24.0918C14.6943 23.8604 14.6557 23.5132 14.4886 23.2432V14.6932C14.4886 5.43609 19.4257 0.0875244 29.1586 0.0875244H84.56C94.2928 0.0875244 99.2299 5.43609 99.2299 14.6932V39.1089C99.0628 39.7261 98.9599 40.1118 98.9599 40.3561V58.8575C98.9599 59.1018 99.0628 59.4747 99.2299 59.7832V157.408C99.2299 166.472 94.0099 171.537 85.8585 171.537Z" fill="#D0D0D0"/>
<mask id="mask3_41_1494" style="mask-type:alpha" maskUnits="userSpaceOnUse" x="14" y="0" width="86" height="172">
<path fill-rule="evenodd" clip-rule="evenodd" d="M85.8585 171.537H61.5585C61.2757 171.357 60.0157 171.332 59.7585 171.332H53.96C53.69 171.332 52.43 171.357 52.16 171.537H27.86C19.6957 171.537 14.4886 166.459 14.4886 157.408V64.1547C14.6557 63.6789 14.7586 63.2932 14.7586 63.0489V51.8118C14.7586 51.5675 14.6557 51.1947 14.4886 50.8861V48.5075C14.6557 48.0318 14.7586 47.6461 14.7586 47.4018V36.1647C14.7586 35.9204 14.6557 35.5475 14.4886 35.2389V30.0832C14.6557 29.6589 14.6943 29.3118 14.6943 29.0804V24.0918C14.6943 23.8604 14.6557 23.5132 14.4886 23.2432V14.6932C14.4886 5.43609 19.4257 0.0875244 29.1586 0.0875244H84.56C94.2928 0.0875244 99.2299 5.43609 99.2299 14.6932V39.1089C99.0628 39.7261 98.9599 40.1118 98.9599 40.3561V58.8575C98.9599 59.1018 99.0628 59.4747 99.2299 59.7832V157.408C99.2299 166.472 94.0099 171.537 85.8585 171.537Z" fill="white"/>
</mask>
<g mask="url(#mask3_41_1494)">
<g style="mix-blend-mode:hard-light" opacity="0.4">
<rect x="-46.0428" y="-17.0639" width="205.714" height="205.714" fill="#E4E4E4"/>
</g>
<g opacity="0.49983" filter="url(#filter9_f_41_1494)">
<path d="M87.9029 -0.60675H26.06C19.2072 -0.60675 13.64 4.94754 13.64 11.8132V158.41C13.64 164.35 17.8186 169.66 23.3986 170.959C18.2814 169.532 14.5529 165.045 14.5529 158.925V14.1533C14.5529 4.97325 20.12 -0.42675 26.9857 -0.42675H86.6814C93.5471 -0.42675 99.1143 4.84468 99.1143 13.6775V158.938C99.1143 165.585 95.09 169.969 89.6771 171.139C95.6943 170.213 100.31 164.672 100.31 158.41V11.8132C100.323 4.94754 94.7686 -0.60675 87.9029 -0.60675Z" fill="black"/>
</g>
<g filter="url(#filter10_f_41_1494)">
<path fill-rule="evenodd" clip-rule="evenodd" d="M97.1728 14.0376C97.1728 6.77327 93.0585 2.17041 84.9714 2.17041H28.7343C20.6471 2.17041 16.5328 6.76041 16.5328 14.0376L16.5328 158.436C16.5328 167.488 22.2286 170.638 28.6057 170.638H85.1C91.4771 170.638 97.1728 167.488 97.1728 158.436V14.0376Z" fill="#EDEDED"/>
</g>
<g opacity="0.7" filter="url(#filter11_f_41_1494)">
<path fill-rule="evenodd" clip-rule="evenodd" d="M97.1728 14.0376C97.1728 6.77327 93.0585 2.17041 84.9714 2.17041H28.7343C20.6471 2.17041 16.5328 6.76041 16.5328 14.0376V157.279C16.5328 166.33 22.2286 169.48 28.6057 169.48H85.1C91.4771 169.48 97.1728 166.33 97.1728 157.279V14.0376Z" fill="white"/>
</g>
<g filter="url(#filter12_f_41_1494)">
<path fill-rule="evenodd" clip-rule="evenodd" d="M91.5415 168.747C94.3444 166.806 96.1444 163.656 96.1444 159.67V13.5618C96.1444 7.51892 93.6629 3.90607 89.9858 2.20892C94.7044 3.95749 98.0601 8.50892 98.0601 13.8703V157.446C98.0601 162.19 95.4244 166.523 91.5415 168.747ZM17.3558 14.0632V159.67C17.3558 162.808 18.4615 165.405 20.2872 167.32C17.5229 164.916 15.6458 161.316 15.6458 157.446V13.8704C15.6458 8.9975 18.5643 4.78036 22.6143 2.74893C19.4386 4.6775 17.3558 8.30322 17.3558 14.0632Z" fill="white"/>
</g>
<g filter="url(#filter13_f_41_1494)">
<path fill-rule="evenodd" clip-rule="evenodd" d="M91.5415 168.747C94.3444 166.806 96.1444 163.656 96.1444 159.67V13.5618C96.1444 7.51892 93.6629 3.90607 89.9858 2.20892C94.7044 3.95749 98.0601 8.50892 98.0601 13.8703V157.446C98.0601 162.19 95.4244 166.523 91.5415 168.747ZM17.3558 14.0632V159.67C17.3558 162.808 18.4615 165.405 20.2872 167.32C17.5229 164.916 15.6458 161.316 15.6458 157.446V13.8704C15.6458 8.9975 18.5643 4.78036 22.6143 2.74893C19.4386 4.6775 17.3558 8.30322 17.3558 14.0632Z" fill="white"/>
</g>
<g filter="url(#filter14_f_41_1494)">
<path fill-rule="evenodd" clip-rule="evenodd" d="M85.5886 3.57178H28.1172C21.47 3.57178 17.4457 5.92464 16.1215 10.9132C16.7129 4.53607 20.84 0.588928 28.4 0.588928H85.3057C92.8657 0.588928 96.9929 4.53607 97.5843 10.9132C96.26 5.9375 92.2357 3.57178 85.5886 3.57178Z" fill="white"/>
</g>
<g opacity="0.2" filter="url(#filter15_f_41_1494)">
<path d="M25.7078 171.383H87.985C93.9943 171.383 99.0374 167.436 100.48 162.1V163.566C100.48 170.419 94.762 175.986 87.6938 175.986H25.999C18.9441 175.986 13.2127 170.432 13.2127 163.566V162.1C14.6687 167.436 19.7118 171.383 25.7078 171.383Z" fill="black"/>
</g>
<g opacity="0.1" filter="url(#filter16_f_41_1494)">
<path fill-rule="evenodd" clip-rule="evenodd" d="M25.7087 171.345H87.997C92.3412 171.345 96.1866 169.287 98.5228 166.112C96.3572 169.93 92.2099 172.502 87.4458 172.502H26.26C21.4958 172.502 17.3354 169.917 15.183 166.112C17.5191 169.287 21.3646 171.345 25.7087 171.345Z" fill="#808080"/>
</g>
<g opacity="0.2" filter="url(#filter17_f_41_1494)">
<path fill-rule="evenodd" clip-rule="evenodd" d="M26.78 171.64H86.9257C93.1357 171.64 98.2785 167.115 99.23 161.2V163.309C99.23 170.162 93.6757 175.729 86.81 175.729H26.8829C20.03 175.729 14.4629 170.175 14.4629 163.309V161.2C15.4143 167.115 20.57 171.64 26.78 171.64Z" fill="black"/>
</g>
<g opacity="0.9" filter="url(#filter18_f_41_1494)">
<path fill-rule="evenodd" clip-rule="evenodd" d="M89.4329 171.293C95.1522 170.039 99.0243 165.443 99.0243 157.327V14.532C99.0243 3.6356 91.6808 0.20325 84.9457 0.20325H28.5843C21.2718 0.20325 14.63 4.06947 14.63 14.6767V156.748C14.63 165.652 19.1986 170.2 23.9129 171.178C13.22 174.025 12.9714 164.518 12.9714 158.385V11.8132C12.9714 4.96039 19.22 -0.60675 26.0729 -0.60675H87.9157C94.7686 -0.60675 101.017 4.94754 101.017 11.8132V158.41C101.004 164.749 98.3665 172.643 89.4329 171.293Z" fill="white"/>
</g>
</g>
<mask id="mask4_41_1494" style="mask-type:alpha" maskUnits="userSpaceOnUse" x="14" y="0" width="86" height="172">
<path fill-rule="evenodd" clip-rule="evenodd" d="M97.7171 157.279C97.7171 161.657 96.4278 164.992 93.8845 167.191C91.7347 169.05 88.697 170.033 85.1 170.033H28.597C25.0001 170.033 21.9625 169.05 19.8125 167.191C17.2694 164.992 15.9799 161.657 15.9799 157.279V14.0333C15.9799 10.2463 17.0961 7.11908 19.2076 4.98981C21.4238 2.75498 24.6291 1.62175 28.7342 1.62175H84.9629C89.0679 1.62175 92.2732 2.75498 94.4894 4.98981C96.601 7.11908 97.7171 10.2463 97.7171 14.0333V157.279ZM29.1456 0.11322C19.4085 0.11322 14.4896 5.46179 14.4896 14.7189V157.416C14.4896 166.468 19.6828 171.542 27.8428 171.542H85.8543C94.0142 171.542 99.2257 166.468 99.2257 157.416V14.7189C99.2257 5.46179 94.2886 0.11322 84.5515 0.11322H29.1456Z" fill="white"/>
</mask>
<g mask="url(#mask4_41_1494)">
<path fill-rule="evenodd" clip-rule="evenodd" d="M14.3342 17.7404V16.5704H99.3586V17.7404H14.3342ZM99.3586 155.158H14.3342V153.988H99.3586V155.158Z" fill="#989899" fill-opacity="0.6"/>
<mask id="mask5_41_1494" style="mask-type:alpha" maskUnits="userSpaceOnUse" x="14" y="16" width="86" height="140">
<path fill-rule="evenodd" clip-rule="evenodd" d="M14.3342 17.7404V16.5704H99.3586V17.7404H14.3342ZM99.3586 155.158H14.3342V153.988H99.3586V155.158Z" fill="white"/>
</mask>
<g mask="url(#mask5_41_1494)">
<g opacity="0.8" filter="url(#filter19_f_41_1494)">
<path fill-rule="evenodd" clip-rule="evenodd" d="M96.35 18.8846H98.1757V15.4003H96.35V18.8846ZM99.1528 15.4132V18.8975H100.966V15.4132H99.1528ZM96.35 156.302H98.1757V152.818H96.35V156.302ZM99.1528 156.302H100.966V152.818H99.1528V156.302ZM12.8299 18.8846H14.6428V15.4003H12.8171V18.8846H12.8299ZM15.4914 18.8846H17.3171V15.4003H15.4914V18.8846ZM12.8299 156.302H14.6428V152.818H12.8171V156.302H12.8299ZM15.4914 156.302H17.3171V152.818H15.4914V156.302Z" fill="white"/>
</g>
<g style="mix-blend-mode:hard-light" opacity="0.15">
<rect x="-46.043" y="-17.0639" width="205.714" height="205.714" fill="#E4E4E4"/>
</g>
</g>
</g>
<path opacity="0.1" fill-rule="evenodd" clip-rule="evenodd" d="M94.5886 4.89609C92.3514 2.63324 89.1114 1.48895 84.9586 1.48895H28.7343C24.5943 1.48895 21.3543 2.63324 19.1043 4.89609C16.97 7.05609 15.8386 10.2061 15.8386 14.0375V157.279C15.8386 161.702 17.15 165.07 19.7214 167.295C21.8943 169.172 24.9671 170.175 28.5929 170.175H85.1C88.7257 170.175 91.7986 169.185 93.9715 167.295C96.5429 165.07 97.8543 161.702 97.8543 157.279V14.0375C97.8543 10.2061 96.7229 7.04324 94.5886 4.89609ZM28.7343 2.17039H84.9585C93.0585 2.17039 97.1728 6.76039 97.1728 14.0375V157.279C97.1728 166.33 91.4771 169.48 85.1 169.48H28.6057C22.2286 169.48 16.5328 166.33 16.5328 157.279V14.0375C16.5328 6.76039 20.6471 2.17039 28.7343 2.17039ZM93.4314 166.678C95.8228 164.608 97.0314 161.445 97.0314 157.279V14.0375C97.0314 10.3861 96.0028 7.5061 93.9971 5.47467C91.9143 3.37895 88.88 2.31181 84.9585 2.31181H28.7343C24.8257 2.31181 21.7786 3.37895 19.6957 5.47467C17.6771 7.5061 16.6614 10.3861 16.6614 14.0375V157.279C16.6614 161.458 17.87 164.62 20.2614 166.678C22.28 168.426 25.16 169.352 28.5929 169.352H85.1C88.52 169.352 91.4128 168.426 93.4314 166.678ZM93.8815 167.192C96.4272 164.993 97.7129 161.65 97.7129 157.279V14.0375C97.7129 10.2575 96.5943 7.13324 94.4858 4.99895C92.2743 2.76181 89.0601 1.63038 84.9586 1.63038H28.7343C24.6329 1.63038 21.4186 2.76181 19.2071 4.99895C17.0986 7.12038 15.98 10.2447 15.98 14.0375V157.279C15.98 161.663 17.2657 164.993 19.8114 167.192C21.9586 169.056 24.9929 170.033 28.5929 170.033H85.1C88.7001 170.033 91.7343 169.056 93.8815 167.192Z" fill="black"/>
<path d="M61.34 6.14319H52.3529C51.9543 6.14319 51.6329 6.46462 51.6329 6.86319C51.6329 7.26176 51.9543 7.58319 52.3529 7.58319H61.34C61.7386 7.58319 62.06 7.26176 62.06 6.86319C62.06 6.46462 61.7386 6.14319 61.34 6.14319Z" fill="#DDDDDD"/>
<mask id="mask6_41_1494" style="mask-type:alpha" maskUnits="userSpaceOnUse" x="51" y="6" width="12" height="2">
<path d="M61.34 6.14319H52.3529C51.9543 6.14319 51.6329 6.46462 51.6329 6.86319C51.6329 7.26176 51.9543 7.58319 52.3529 7.58319H61.34C61.7386 7.58319 62.06 7.26176 62.06 6.86319C62.06 6.46462 61.7386 6.14319 61.34 6.14319Z" fill="white"/>
</mask>
<g mask="url(#mask6_41_1494)">
<path opacity="0.503748" fill-rule="evenodd" clip-rule="evenodd" d="M50.5071 7.6914L52.0032 5.99731L52.0694 6.07227L50.5733 7.76636L50.5071 7.6914ZM52.3739 5.99732L50.8779 7.69141L50.9441 7.76637L52.4401 6.07228L52.3739 5.99732ZM51.2353 7.69141L52.7314 5.99732L52.7976 6.07228L51.3015 7.76637L51.2353 7.69141ZM53.0889 5.99732L51.5928 7.69141L51.659 7.76637L53.1551 6.07228L53.0889 5.99732ZM51.9503 7.69141L53.4463 5.99732L53.5125 6.07228L52.0165 7.76637L51.9503 7.69141ZM53.8038 5.99732L52.3077 7.69141L52.3739 7.76637L53.87 6.07228L53.8038 5.99732ZM52.6784 7.69141L54.1745 5.99732L54.2407 6.07228L52.7446 7.76637L52.6784 7.69141ZM54.532 5.99732L53.0359 7.69141L53.1021 7.76637L54.5982 6.07228L54.532 5.99732ZM53.3934 7.69141L54.8894 5.99732L54.9556 6.07228L53.4596 7.76637L53.3934 7.69141ZM55.2469 5.99732L53.7508 7.69141L53.817 7.76637L55.3131 6.07228L55.2469 5.99732ZM54.1215 7.69141L55.6176 5.99732L55.6838 6.07228L54.1877 7.76637L54.1215 7.69141ZM55.9751 5.99732L54.479 7.69141L54.5452 7.76637L56.0413 6.07228L55.9751 5.99732ZM54.8365 7.69141L56.3326 5.99732L56.3988 6.07228L54.9027 7.76637L54.8365 7.69141ZM56.69 5.99732L55.194 7.69141L55.2602 7.76637L56.7562 6.07228L56.69 5.99732ZM55.5514 7.69141L57.0474 5.99732L57.1136 6.07228L55.6176 7.76637L55.5514 7.69141ZM57.4182 5.99732L55.9221 7.69141L55.9883 7.76637L57.4844 6.07228L57.4182 5.99732ZM56.2796 7.69141L57.7757 5.99732L57.8419 6.07228L56.3458 7.76637L56.2796 7.69141ZM58.1331 5.99732L56.6371 7.69141L56.7033 7.76637L58.1993 6.07228L58.1331 5.99732ZM56.9945 7.69141L58.4906 5.99732L58.5568 6.07228L57.0607 7.76637L56.9945 7.69141ZM58.8613 5.99732L57.3652 7.69141L57.4314 7.76637L58.9275 6.07228L58.8613 5.99732ZM57.7227 7.69141L59.2188 5.99732L59.285 6.07228L57.7889 7.76637L57.7227 7.69141ZM59.5762 5.99732L58.0802 7.69141L58.1464 7.76637L59.6424 6.07228L59.5762 5.99732ZM58.4376 7.69141L59.9337 5.99732L59.9999 6.07228L58.5038 7.76637L58.4376 7.69141ZM60.2911 5.99732L58.7951 7.69141L58.8613 7.76637L60.3573 6.07228L60.2911 5.99732ZM59.1658 7.69141L60.6619 5.99732L60.7281 6.07228L59.232 7.76637L59.1658 7.69141ZM61.0194 5.99732L59.5232 7.69141L59.5894 7.76637L61.0856 6.07228L61.0194 5.99732ZM59.8808 7.69141L61.3768 5.99732L61.443 6.07228L59.947 7.76637L59.8808 7.69141ZM61.7342 5.99732L60.2382 7.69141L60.3044 7.76637L61.8004 6.07228L61.7342 5.99732ZM60.6089 7.69141L62.105 5.99732L62.1712 6.07228L60.6751 7.76637L60.6089 7.69141ZM62.4625 5.99732L60.9664 7.69141L61.0326 7.76637L62.5287 6.07228L62.4625 5.99732ZM62.8199 5.99732L61.3239 7.69141L61.39 7.76637L62.8861 6.07228L62.8199 5.99732Z" fill="white"/>
<path opacity="0.6" fill-rule="evenodd" clip-rule="evenodd" d="M52.0032 7.75138L50.5071 6.05728L50.5733 5.99731L52.0694 7.67642L52.0032 7.75138ZM50.8646 6.05728L52.3607 7.75138L52.4269 7.67642L50.9308 5.99732L50.8646 6.05728ZM52.7314 7.75138L51.2353 6.05728L51.2883 5.99732L52.7976 7.67642L52.7314 7.75138ZM51.5928 6.05728L53.0889 7.75138L53.1551 7.67642L51.659 5.99732L51.5928 6.05728ZM53.4463 7.75138L51.9503 6.05728L52.0165 5.99732L53.5125 7.67642L53.4463 7.75138ZM52.3077 6.05728L53.8038 7.75138L53.87 7.67642L52.3739 5.99732L52.3077 6.05728ZM54.1745 7.75138L52.6784 6.05728L52.7314 5.99732L54.2407 7.67642L54.1745 7.75138ZM53.0359 6.05728L54.532 7.75138L54.5982 7.67642L53.1021 5.99732L53.0359 6.05728ZM54.8894 7.75138L53.3934 6.05728L53.4596 5.99732L54.9556 7.67642L54.8894 7.75138ZM53.7508 6.05728L55.2469 7.75138L55.3131 7.67642L53.817 5.99732L53.7508 6.05728ZM55.6044 7.75138L54.1083 6.05728L54.1745 5.99732L55.6706 7.67642L55.6044 7.75138ZM54.479 6.05728L55.9751 7.75138L56.0413 7.67642L54.532 5.99732L54.479 6.05728ZM56.3326 7.75138L54.8365 6.05728L54.9027 5.99732L56.3988 7.67642L56.3326 7.75138ZM55.194 6.05728L56.69 7.75138L56.7562 7.67642L55.2602 5.99732L55.194 6.05728ZM57.0474 7.75138L55.5514 6.05728L55.6176 5.99732L57.1136 7.67642L57.0474 7.75138ZM55.9221 6.05728L57.4182 7.75138L57.4844 7.67642L55.9751 5.99732L55.9221 6.05728ZM57.7757 7.75138L56.2796 6.05728L56.3326 5.99732L57.8419 7.67642L57.7757 7.75138ZM56.6371 6.05728L58.1331 7.75138L58.1993 7.67642L56.7033 5.99732L56.6371 6.05728ZM58.4906 7.75138L56.9945 6.05728L57.0607 5.99732L58.5568 7.67642L58.4906 7.75138ZM57.352 6.05728L58.848 7.75138L58.9142 7.67642L57.4182 5.99732L57.352 6.05728ZM59.2188 7.75138L57.7227 6.05728L57.7757 5.99732L59.285 7.67642L59.2188 7.75138ZM58.0802 6.05728L59.5762 7.75138L59.6424 7.67642L58.1464 5.99732L58.0802 6.05728ZM59.9337 7.75138L58.4376 6.05728L58.5038 5.99732L59.9999 7.67642L59.9337 7.75138ZM58.7951 6.05728L60.2911 7.75138L60.3573 7.67642L58.8613 5.99732L58.7951 6.05728ZM60.6487 7.75138L59.1526 6.05728L59.2188 5.99732L60.7149 7.67642L60.6487 7.75138ZM59.5232 6.05728L61.0194 7.75138L61.0856 7.67642L59.5762 5.99732L59.5232 6.05728ZM61.3768 7.75138L59.8808 6.05728L59.947 5.99732L61.443 7.67642L61.3768 7.75138ZM60.2382 6.05728L61.7342 7.75138L61.8004 7.67642L60.3044 5.99732L60.2382 6.05728ZM62.0917 7.75138L60.5957 6.05728L60.6619 5.99732L62.1579 7.67642L62.0917 7.75138ZM60.9664 6.05728L62.4625 7.75138L62.5287 7.67642L61.0193 5.99732L60.9664 6.05728ZM61.39 5.99732L61.3239 6.07228L62.8199 7.76637L62.8861 7.69141L61.39 5.99732Z" fill="white"/>
</g>
<mask id="mask7_41_1494" style="mask-type:alpha" maskUnits="userSpaceOnUse" x="51" y="6" width="12" height="2">
<path fill-rule="evenodd" clip-rule="evenodd" d="M52.3529 6.01465H61.34C61.8158 6.01465 62.2015 6.40036 62.2015 6.87608C62.2015 7.35179 61.8158 7.7375 61.34 7.7375H52.3529C51.8772 7.7375 51.4915 7.35179 51.4915 6.87608C51.4915 6.40036 51.8772 6.01465 52.3529 6.01465ZM52.3528 7.58322H61.34C61.7386 7.58322 62.06 7.26179 62.06 6.86322C62.06 6.46465 61.7386 6.14322 61.34 6.14322H52.3528C51.9543 6.14322 51.6329 6.46465 51.6329 6.86322C51.6329 7.26179 51.9543 7.58322 52.3528 7.58322Z" fill="white"/>
</mask>
<g mask="url(#mask7_41_1494)">
<g opacity="0.799366" filter="url(#filter20_f_41_1494)">
<path fill-rule="evenodd" clip-rule="evenodd" d="M51.3115 6.94037H62.2915V8.49607H51.3115V6.94037Z" fill="white"/>
</g>
<g filter="url(#filter21_f_41_1494)">
<path d="M61.3401 6.1432H52.3529C51.9028 6.1432 51.53 6.49034 51.5043 6.92748C51.5043 6.90177 51.5043 6.87605 51.5043 6.8632C51.5043 6.38748 51.89 6.00177 52.3657 6.00177H61.3529C61.8286 6.00177 62.2144 6.38748 62.2144 6.8632C62.2144 6.88891 62.2144 6.91462 62.2144 6.92748C62.1629 6.49034 61.7901 6.1432 61.3401 6.1432Z" fill="black"/>
</g>
<g style="mix-blend-mode:soft-light" opacity="0.15">
<rect x="-59.2858" y="-16.8068" width="205.714" height="205.714" fill="#E4E4E4"/>
</g>
</g>
<path fill-rule="evenodd" clip-rule="evenodd" d="M52.3529 7.72466H61.34C61.8029 7.72466 62.1758 7.36466 62.2015 6.90179C62.2015 6.91465 62.2015 6.92751 62.2015 6.94037C62.2015 7.41609 61.8158 7.80181 61.34 7.80181H52.3529C51.8772 7.80181 51.4915 7.41609 51.4915 6.94037C51.4915 6.92751 51.4915 6.91465 51.4915 6.90179C51.5172 7.36466 51.89 7.72466 52.3529 7.72466Z" fill="white"/>
<path opacity="0.9" fill-rule="evenodd" clip-rule="evenodd" d="M61.34 6.01464H52.3529C51.89 6.01464 51.5172 6.37465 51.4915 6.83751C51.4915 6.82465 51.4915 6.81179 51.4915 6.79893C51.4915 6.32322 51.8772 5.9375 52.3529 5.9375H61.34C61.8158 5.9375 62.2015 6.32322 62.2015 6.79893C62.2015 6.81179 62.2015 6.82465 62.2015 6.83751C62.1758 6.37465 61.8029 6.01464 61.34 6.01464Z" fill="white"/>
<g opacity="0.5" filter="url(#filter22_i_41_1494)">
<path d="M61.34 6.14319H52.3529C51.9543 6.14319 51.6329 6.46462 51.6329 6.86319C51.6329 7.26176 51.9543 7.58319 52.3529 7.58319H61.34C61.7386 7.58319 62.06 7.26176 62.06 6.86319C62.06 6.46462 61.7386 6.14319 61.34 6.14319Z" fill="black" fill-opacity="0.01"/>
</g>
<mask id="mask8_41_1494" style="mask-type:alpha" maskUnits="userSpaceOnUse" x="51" y="6" width="12" height="2">
<path d="M61.34 6.14319H52.3529C51.9543 6.14319 51.6329 6.46462 51.6329 6.86319C51.6329 7.26176 51.9543 7.58319 52.3529 7.58319H61.34C61.7386 7.58319 62.06 7.26176 62.06 6.86319C62.06 6.46462 61.7386 6.14319 61.34 6.14319Z" fill="white"/>
</mask>
<g mask="url(#mask8_41_1494)">
<g style="mix-blend-mode:soft-light" opacity="0.03">
<rect x="-59.2858" y="-16.9354" width="205.714" height="205.714" fill="#E4E4E4"/>
</g>
</g>
<path d="M67.2672 6.96611C67.2672 7.68611 66.6886 8.26468 65.9686 8.26468C65.2486 8.26468 64.67 7.68611 64.67 6.96611C64.67 6.24611 65.2486 5.66754 65.9686 5.66754C66.6886 5.66754 67.2672 6.24611 67.2672 6.96611Z" fill="#E2E2E2"/>
<mask id="mask9_41_1494" style="mask-type:alpha" maskUnits="userSpaceOnUse" x="64" y="5" width="4" height="4">
<path d="M67.2672 6.96611C67.2672 7.68611 66.6886 8.26468 65.9686 8.26468C65.2486 8.26468 64.67 7.68611 64.67 6.96611C64.67 6.24611 65.2486 5.66754 65.9686 5.66754C66.6886 5.66754 67.2672 6.24611 67.2672 6.96611Z" fill="white"/>
</mask>
<g mask="url(#mask9_41_1494)">
<g filter="url(#filter23_f_41_1494)">
<path d="M67.3057 8.29041C67.3057 9.03613 66.7014 9.65327 65.9429 9.65327C65.1972 9.65327 64.58 9.04898 64.58 8.29041C64.58 7.5447 65.1843 6.92755 65.9429 6.92755C66.7014 6.92755 67.3057 7.5447 67.3057 8.29041Z" fill="white"/>
</g>
<g opacity="0.1" filter="url(#filter24_f_41_1494)">
<path d="M67.3057 5.82184C67.3057 6.56756 66.7014 7.1847 65.9429 7.1847C65.1972 7.1847 64.58 6.58041 64.58 5.82184C64.58 5.07613 65.1843 4.45898 65.9429 4.45898C66.7014 4.45898 67.3057 5.07613 67.3057 5.82184Z" fill="black"/>
</g>
<g style="mix-blend-mode:soft-light" opacity="0.297101">
<rect x="-46.0428" y="-17.0639" width="205.714" height="205.714" fill="#E4E4E4"/>
</g>
</g>
<g filter="url(#filter25_i_41_1494)">
<path d="M66.7914 6.96611C66.7914 7.41611 66.4185 7.78897 65.9686 7.78897C65.5186 7.78897 65.1458 7.41611 65.1458 6.96611C65.1458 6.51611 65.5186 6.14325 65.9686 6.14325C66.4185 6.14325 66.7914 6.51611 66.7914 6.96611Z" fill="#E0E0E0"/>
</g>
<mask id="mask10_41_1494" style="mask-type:alpha" maskUnits="userSpaceOnUse" x="65" y="6" width="2" height="2">
<path d="M66.7914 6.96611C66.7914 7.41611 66.4185 7.78897 65.9686 7.78897C65.5186 7.78897 65.1458 7.41611 65.1458 6.96611C65.1458 6.51611 65.5186 6.14325 65.9686 6.14325C66.4185 6.14325 66.7914 6.51611 66.7914 6.96611Z" fill="white"/>
</mask>
<g mask="url(#mask10_41_1494)">
<g filter="url(#filter26_f_41_1494)">
<path fill-rule="evenodd" clip-rule="evenodd" d="M65.3514 7.13324C65.2614 7.27467 65.6086 7.64753 65.9429 7.64753C66.2643 7.64753 66.6758 7.30038 66.6115 7.1461C66.4958 7.21038 66.2386 7.33895 65.9557 7.33895C65.6729 7.33895 65.4414 7.22324 65.3514 7.13324Z" fill="white"/>
</g>
<g filter="url(#filter27_f_41_1494)">
<path fill-rule="evenodd" clip-rule="evenodd" d="M65.8272 6.52893C66.0072 6.52893 66.1486 6.67036 66.1486 6.85036C66.1486 7.03036 66.0072 7.17179 65.8272 7.17179C65.6472 7.17179 65.5058 7.03036 65.5058 6.85036C65.5058 6.67036 65.6472 6.52893 65.8272 6.52893Z" fill="white"/>
</g>
<g style="mix-blend-mode:soft-light" opacity="0.297101">
<rect x="-45.6571" y="-16.5496" width="205.714" height="205.714" fill="#E4E4E4"/>
</g>
</g>
<path d="M94.1257 13.6986V13.698C94.1127 10.8962 93.295 8.73486 91.7967 7.27435C90.2989 5.81429 88.1382 5.07141 85.4728 5.07141H78.7357C78.0347 5.07141 77.4628 5.64326 77.4628 6.34427V6.83284C77.4628 9.15326 75.579 11.0371 73.2586 11.0371H40.37C38.0495 11.0371 36.1657 9.15326 36.1657 6.83284V6.34427C36.1657 5.64326 35.5938 5.07141 34.8928 5.07141H28.1557C25.4903 5.07141 23.3296 5.81427 21.835 7.27444C20.3398 8.73513 19.5286 10.8967 19.5286 13.6986V158.316C19.5286 161.127 20.5352 163.204 22.1617 164.579C23.785 165.951 26.0125 166.609 28.4386 166.609H85.2157C87.6354 166.609 89.8629 165.951 91.4877 164.579C93.1158 163.204 94.1257 161.127 94.1257 158.316V13.6986Z" stroke="black" stroke-opacity="0.1" stroke-width="2"/>
<defs>
<filter id="filter0_f_41_1494" x="7.48828" y="162.611" width="97.8323" height="17.2869" filterUnits="userSpaceOnUse" color-interpolation-filters="sRGB">
<feFlood flood-opacity="0" result="BackgroundImageFix"/>
<feBlend mode="normal" in="SourceGraphic" in2="BackgroundImageFix" result="shape"/>
<feGaussianBlur stdDeviation="4.07742" result="effect1_foregroundBlur_41_1494"/>
</filter>
<filter id="filter1_f_41_1494" x="0.430665" y="162.354" width="112.01" height="17.8525" filterUnits="userSpaceOnUse" color-interpolation-filters="sRGB">
<feFlood flood-opacity="0" result="BackgroundImageFix"/>
<feBlend mode="normal" in="SourceGraphic" in2="BackgroundImageFix" result="shape"/>
<feGaussianBlur stdDeviation="4.07742" result="effect1_foregroundBlur_41_1494"/>
</filter>
<filter id="filter2_f_41_1494" x="-2.59253" y="5.95642" width="118.814" height="75.4723" filterUnits="userSpaceOnUse" color-interpolation-filters="sRGB">
<feFlood flood-opacity="0" result="BackgroundImageFix"/>
<feBlend mode="normal" in="SourceGraphic" in2="BackgroundImageFix" result="shape"/>
<feGaussianBlur stdDeviation="8.15485" result="effect1_foregroundBlur_41_1494"/>
</filter>
<filter id="filter3_f_41_1494" x="5.56232" y="13.5584" width="102.44" height="60.0497" filterUnits="userSpaceOnUse" color-interpolation-filters="sRGB">
<feFlood flood-opacity="0" result="BackgroundImageFix"/>
<feBlend mode="normal" in="SourceGraphic" in2="BackgroundImageFix" result="shape"/>
<feGaussianBlur stdDeviation="4.07742" result="effect1_foregroundBlur_41_1494"/>
</filter>
<filter id="filter4_f_41_1494" x="8.2806" y="16.3024" width="97.0674" height="54.2531" filterUnits="userSpaceOnUse" color-interpolation-filters="sRGB">
<feFlood flood-opacity="0" result="BackgroundImageFix"/>
<feBlend mode="normal" in="SourceGraphic" in2="BackgroundImageFix" result="shape"/>
<feGaussianBlur stdDeviation="2.71828" result="effect1_foregroundBlur_41_1494"/>
</filter>
<filter id="filter5_f_41_1494" x="8.2806" y="16.4052" width="97.0674" height="54.2531" filterUnits="userSpaceOnUse" color-interpolation-filters="sRGB">
<feFlood flood-opacity="0" result="BackgroundImageFix"/>
<feBlend mode="normal" in="SourceGraphic" in2="BackgroundImageFix" result="shape"/>
<feGaussianBlur stdDeviation="2.71828" result="effect1_foregroundBlur_41_1494"/>
</filter>
<filter id="filter6_f_41_1494" x="7.53487" y="17.871" width="11.8152" height="17.816" filterUnits="userSpaceOnUse" color-interpolation-filters="sRGB">
<feFlood flood-opacity="0" result="BackgroundImageFix"/>
<feBlend mode="normal" in="SourceGraphic" in2="BackgroundImageFix" result="shape"/>
<feGaussianBlur stdDeviation="2.71828" result="effect1_foregroundBlur_41_1494"/>
</filter>
<filter id="filter7_f_41_1494" x="7.14913" y="29.1703" width="12.2009" height="41.2146" filterUnits="userSpaceOnUse" color-interpolation-filters="sRGB">
<feFlood flood-opacity="0" result="BackgroundImageFix"/>
<feBlend mode="normal" in="SourceGraphic" in2="BackgroundImageFix" result="shape"/>
<feGaussianBlur stdDeviation="2.71828" result="effect1_foregroundBlur_41_1494"/>
</filter>
<filter id="filter8_f_41_1494" x="94.5695" y="29.1703" width="12.2008" height="41.2146" filterUnits="userSpaceOnUse" color-interpolation-filters="sRGB">
<feFlood flood-opacity="0" result="BackgroundImageFix"/>
<feBlend mode="normal" in="SourceGraphic" in2="BackgroundImageFix" result="shape"/>
<feGaussianBlur stdDeviation="2.71828" result="effect1_foregroundBlur_41_1494"/>
</filter>
<filter id="filter9_f_41_1494" x="-2.66968" y="-16.9164" width="119.289" height="204.365" filterUnits="userSpaceOnUse" color-interpolation-filters="sRGB">
<feFlood flood-opacity="0" result="BackgroundImageFix"/>
<feBlend mode="normal" in="SourceGraphic" in2="BackgroundImageFix" result="shape"/>
<feGaussianBlur stdDeviation="8.15485" result="effect1_foregroundBlur_41_1494"/>
</filter>
<filter id="filter10_f_41_1494" x="-26.9597" y="-41.3221" width="167.625" height="255.452" filterUnits="userSpaceOnUse" color-interpolation-filters="sRGB">
<feFlood flood-opacity="0" result="BackgroundImageFix"/>
<feBlend mode="normal" in="SourceGraphic" in2="BackgroundImageFix" result="shape"/>
<feGaussianBlur stdDeviation="21.7463" result="effect1_foregroundBlur_41_1494"/>
</filter>
<filter id="filter11_f_41_1494" x="-26.9597" y="-41.3221" width="167.625" height="254.295" filterUnits="userSpaceOnUse" color-interpolation-filters="sRGB">
<feFlood flood-opacity="0" result="BackgroundImageFix"/>
<feBlend mode="normal" in="SourceGraphic" in2="BackgroundImageFix" result="shape"/>
<feGaussianBlur stdDeviation="21.7463" result="effect1_foregroundBlur_41_1494"/>
</filter>
<filter id="filter12_f_41_1494" x="-6.1005" y="-19.5373" width="125.907" height="210.031" filterUnits="userSpaceOnUse" color-interpolation-filters="sRGB">
<feFlood flood-opacity="0" result="BackgroundImageFix"/>
<feBlend mode="normal" in="SourceGraphic" in2="BackgroundImageFix" result="shape"/>
<feGaussianBlur stdDeviation="10.8731" result="effect1_foregroundBlur_41_1494"/>
</filter>
<filter id="filter13_f_41_1494" x="-6.1005" y="-19.5373" width="125.907" height="210.031" filterUnits="userSpaceOnUse" color-interpolation-filters="sRGB">
<feFlood flood-opacity="0" result="BackgroundImageFix"/>
<feBlend mode="normal" in="SourceGraphic" in2="BackgroundImageFix" result="shape"/>
<feGaussianBlur stdDeviation="10.8731" result="effect1_foregroundBlur_41_1494"/>
</filter>
<filter id="filter14_f_41_1494" x="-16.4979" y="-32.0305" width="146.702" height="75.563" filterUnits="userSpaceOnUse" color-interpolation-filters="sRGB">
<feFlood flood-opacity="0" result="BackgroundImageFix"/>
<feBlend mode="normal" in="SourceGraphic" in2="BackgroundImageFix" result="shape"/>
<feGaussianBlur stdDeviation="16.3097" result="effect1_foregroundBlur_41_1494"/>
</filter>
<filter id="filter15_f_41_1494" x="-3.09698" y="145.791" width="119.887" height="46.5051" filterUnits="userSpaceOnUse" color-interpolation-filters="sRGB">
<feFlood flood-opacity="0" result="BackgroundImageFix"/>
<feBlend mode="normal" in="SourceGraphic" in2="BackgroundImageFix" result="shape"/>
<feGaussianBlur stdDeviation="8.15485" result="effect1_foregroundBlur_41_1494"/>
</filter>
<filter id="filter16_f_41_1494" x="-1.12671" y="149.802" width="115.959" height="39.0095" filterUnits="userSpaceOnUse" color-interpolation-filters="sRGB">
<feFlood flood-opacity="0" result="BackgroundImageFix"/>
<feBlend mode="normal" in="SourceGraphic" in2="BackgroundImageFix" result="shape"/>
<feGaussianBlur stdDeviation="8.15485" result="effect1_foregroundBlur_41_1494"/>
</filter>
<filter id="filter17_f_41_1494" x="3.58976" y="150.327" width="106.513" height="36.2748" filterUnits="userSpaceOnUse" color-interpolation-filters="sRGB">
<feFlood flood-opacity="0" result="BackgroundImageFix"/>
<feBlend mode="normal" in="SourceGraphic" in2="BackgroundImageFix" result="shape"/>
<feGaussianBlur stdDeviation="5.43656" result="effect1_foregroundBlur_41_1494"/>
</filter>
<filter id="filter18_f_41_1494" x="4.81659" y="-8.7616" width="104.355" height="188.613" filterUnits="userSpaceOnUse" color-interpolation-filters="sRGB">
<feFlood flood-opacity="0" result="BackgroundImageFix"/>
<feBlend mode="normal" in="SourceGraphic" in2="BackgroundImageFix" result="shape"/>
<feGaussianBlur stdDeviation="4.07742" result="effect1_foregroundBlur_41_1494"/>
</filter>
<filter id="filter19_f_41_1494" x="3.6626" y="6.24585" width="106.458" height="159.211" filterUnits="userSpaceOnUse" color-interpolation-filters="sRGB">
<feFlood flood-opacity="0" result="BackgroundImageFix"/>
<feBlend mode="normal" in="SourceGraphic" in2="BackgroundImageFix" result="shape"/>
<feGaussianBlur stdDeviation="4.57724" result="effect1_foregroundBlur_41_1494"/>
</filter>
<filter id="filter20_f_41_1494" x="40.6932" y="-3.67792" width="32.2166" height="22.7923" filterUnits="userSpaceOnUse" color-interpolation-filters="sRGB">
<feFlood flood-opacity="0" result="BackgroundImageFix"/>
<feBlend mode="normal" in="SourceGraphic" in2="BackgroundImageFix" result="shape"/>
<feGaussianBlur stdDeviation="5.30914" result="effect1_foregroundBlur_41_1494"/>
</filter>
<filter id="filter21_f_41_1494" x="48.786" y="3.28349" width="16.1466" height="6.36228" filterUnits="userSpaceOnUse" color-interpolation-filters="sRGB">
<feFlood flood-opacity="0" result="BackgroundImageFix"/>
<feBlend mode="normal" in="SourceGraphic" in2="BackgroundImageFix" result="shape"/>
<feGaussianBlur stdDeviation="1.35914" result="effect1_foregroundBlur_41_1494"/>
</filter>
<filter id="filter22_i_41_1494" x="51.6329" y="6.14319" width="10.4271" height="2.44" filterUnits="userSpaceOnUse" color-interpolation-filters="sRGB">
<feFlood flood-opacity="0" result="BackgroundImageFix"/>
<feBlend mode="normal" in="SourceGraphic" in2="BackgroundImageFix" result="shape"/>
<feColorMatrix in="SourceAlpha" type="matrix" values="0 0 0 0 0 0 0 0 0 0 0 0 0 0 0 0 0 0 127 0" result="hardAlpha"/>
<feOffset dy="1"/>
<feGaussianBlur stdDeviation="1.5"/>
<feComposite in2="hardAlpha" operator="arithmetic" k2="-1" k3="1"/>
<feColorMatrix type="matrix" values="0 0 0 0 0 0 0 0 0 0 0 0 0 0 0 0 0 0 0.297186 0"/>
<feBlend mode="normal" in2="shape" result="effect1_innerShadow_41_1494"/>
</filter>
<filter id="filter23_f_41_1494" x="53.7069" y="-3.94558" width="24.472" height="24.472" filterUnits="userSpaceOnUse" color-interpolation-filters="sRGB">
<feFlood flood-opacity="0" result="BackgroundImageFix"/>
<feBlend mode="normal" in="SourceGraphic" in2="BackgroundImageFix" result="shape"/>
<feGaussianBlur stdDeviation="5.43656" result="effect1_foregroundBlur_41_1494"/>
</filter>
<filter id="filter24_f_41_1494" x="53.7069" y="-6.41414" width="24.472" height="24.472" filterUnits="userSpaceOnUse" color-interpolation-filters="sRGB">
<feFlood flood-opacity="0" result="BackgroundImageFix"/>
<feBlend mode="normal" in="SourceGraphic" in2="BackgroundImageFix" result="shape"/>
<feGaussianBlur stdDeviation="5.43656" result="effect1_foregroundBlur_41_1494"/>
</filter>
<filter id="filter25_i_41_1494" x="65.1458" y="6.14325" width="1.64563" height="1.64569" filterUnits="userSpaceOnUse" color-interpolation-filters="sRGB">
<feFlood flood-opacity="0" result="BackgroundImageFix"/>
<feBlend mode="normal" in="SourceGraphic" in2="BackgroundImageFix" result="shape"/>
<feColorMatrix in="SourceAlpha" type="matrix" values="0 0 0 0 0 0 0 0 0 0 0 0 0 0 0 0 0 0 127 0" result="hardAlpha"/>
<feOffset/>
<feGaussianBlur stdDeviation="2.5"/>
<feComposite in2="hardAlpha" operator="arithmetic" k2="-1" k3="1"/>
<feColorMatrix type="matrix" values="0 0 0 0 0 0 0 0 0 0 0 0 0 0 0 0 0 0 0.281646 0"/>
<feBlend mode="normal" in2="shape" result="effect1_innerShadow_41_1494"/>
</filter>
<filter id="filter26_f_41_1494" x="62.6187" y="4.41496" width="6.71775" height="5.95085" filterUnits="userSpaceOnUse" color-interpolation-filters="sRGB">
<feFlood flood-opacity="0" result="BackgroundImageFix"/>
<feBlend mode="normal" in="SourceGraphic" in2="BackgroundImageFix" result="shape"/>
<feGaussianBlur stdDeviation="1.35914" result="effect1_foregroundBlur_41_1494"/>
</filter>
<filter id="filter27_f_41_1494" x="62.7875" y="3.81065" width="6.07939" height="6.07945" filterUnits="userSpaceOnUse" color-interpolation-filters="sRGB">
<feFlood flood-opacity="0" result="BackgroundImageFix"/>
<feBlend mode="normal" in="SourceGraphic" in2="BackgroundImageFix" result="shape"/>
<feGaussianBlur stdDeviation="1.35914" result="effect1_foregroundBlur_41_1494"/>
</filter>
<linearGradient id="paint0_linear_41_1494" x1="93.6346" y1="170.81" x2="19.6075" y2="166.555" gradientUnits="userSpaceOnUse">
<stop stop-opacity="0.01"/>
<stop offset="0.0674672"/>
<stop offset="0.928003"/>
<stop offset="1" stop-opacity="0.01"/>
</linearGradient>
<linearGradient id="paint1_linear_41_1494" x1="101.1" y1="170.57" x2="12.9287" y2="170.084" gradientUnits="userSpaceOnUse">
<stop stop-opacity="0.01"/>
<stop offset="0.0782494"/>
<stop offset="0.921377"/>
<stop offset="1" stop-opacity="0.01"/>
</linearGradient>
</defs>
</svg>
