<svg width="120" height="120" viewBox="0 0 120 120" fill="none" xmlns="http://www.w3.org/2000/svg">
<g filter="url(#filter0_d_41_1441)">
<circle cx="60" cy="58" r="24" fill="white"/>
</g>
<path d="M55.5 52.75C55.0858 52.75 54.75 53.0858 54.75 53.5C54.75 53.9142 55.0858 54.25 55.5 54.25V52.75ZM69.5303 54.0303C69.8232 53.7374 69.8232 53.2626 69.5303 52.9697L64.7574 48.1967C64.4645 47.9038 63.9896 47.9038 63.6967 48.1967C63.4038 48.4896 63.4038 48.9645 63.6967 49.2574L67.9393 53.5L63.6967 57.7426C63.4038 58.0355 63.4038 58.5104 63.6967 58.8033C63.9896 59.0962 64.4645 59.0962 64.7574 58.8033L69.5303 54.0303ZM55.5 54.25H69V52.75H55.5V54.25Z" fill="#2A61D6"/>
<path d="M62.75 64.25C63.1642 64.25 63.5 63.9142 63.5 63.5C63.5 63.0858 63.1642 62.75 62.75 62.75V64.25ZM48.7197 62.9697C48.4268 63.2626 48.4268 63.7374 48.7197 64.0303L53.4926 68.8033C53.7855 69.0962 54.2604 69.0962 54.5533 68.8033C54.8462 68.5104 54.8462 68.0355 54.5533 67.7426L50.3107 63.5L54.5533 59.2574C54.8462 58.9645 54.8462 58.4896 54.5533 58.1967C54.2604 57.9038 53.7855 57.9038 53.4926 58.1967L48.7197 62.9697ZM62.75 62.75H49.25V64.25H62.75V62.75Z" fill="#2A61D6"/>
<defs>
<filter id="filter0_d_41_1441" x="0" y="0" width="120" height="120" filterUnits="userSpaceOnUse" color-interpolation-filters="sRGB">
<feFlood flood-opacity="0" result="BackgroundImageFix"/>
<feColorMatrix in="SourceAlpha" type="matrix" values="0 0 0 0 0 0 0 0 0 0 0 0 0 0 0 0 0 0 127 0" result="hardAlpha"/>
<feOffset dy="2"/>
<feGaussianBlur stdDeviation="18"/>
<feComposite in2="hardAlpha" operator="out"/>
<feColorMatrix type="matrix" values="0 0 0 0 0 0 0 0 0 0 0 0 0 0 0 0 0 0 0.08 0"/>
<feBlend mode="normal" in2="BackgroundImageFix" result="effect1_dropShadow_41_1441"/>
<feBlend mode="normal" in="SourceGraphic" in2="effect1_dropShadow_41_1441" result="shape"/>
</filter>
</defs>
</svg>
