<svg width="96" height="20" viewBox="0 0 96 20" fill="none" xmlns="http://www.w3.org/2000/svg">
<path d="M25.0368 1.4767L24.995 1.43451L24.4506 0.885986L23.8645 1.4767L24.4506 2.06742L25.0368 1.4767Z" fill="#BD8B13"/>
<path d="M26.2508 1.4767L26.167 1.43451L25.6228 0.885986L25.0366 1.4767L25.6228 2.06742L26.2508 1.4767Z" fill="#BD8B13"/>
<path d="M18.1285 1.35021C18.1285 1.47679 18.2541 1.51899 18.3378 1.56118C18.4635 1.60338 18.5891 1.68776 18.5891 1.85654V6.45569H23.655V6.5401C23.655 6.58228 23.655 6.58228 23.655 6.66669C23.655 7.04641 23.7806 7.29959 23.99 7.38397C23.99 7.38397 24.1156 7.46834 24.283 7.46834C24.4086 7.46834 24.5342 7.42617 24.6598 7.34179L24.7436 7.29959L24.6598 7.21521C24.5342 7.08862 24.4505 6.75107 24.4505 6.5401V6.4979H26.3345V2.27848C26.3345 2.27848 26.0833 2.82701 25.1622 3.5021C25.1622 3.5021 25.2041 3.6709 25.3716 3.75528C25.6228 3.88186 25.5809 4.00845 25.5809 4.00845V5.69621H24.4086V5.61183V5.52745C24.4086 5.10548 24.283 4.09283 23.1526 4.09283H23.1107C22.7758 4.09283 22.4409 4.09283 22.1897 4.09283H22.1059C21.4361 4.09283 21.1011 4.00845 20.9755 3.83966L20.9336 3.75528L20.8917 3.79748C20.7662 3.88186 20.6824 4.05062 20.6824 4.21941C20.6824 4.47259 20.8499 4.81014 21.1011 4.81014C21.2686 4.81014 21.5198 4.81014 21.771 4.81014C22.1897 4.81014 22.6502 4.81014 22.6502 4.81014C23.5713 4.81014 23.6131 5.23207 23.6131 5.40086V5.61183H19.3427V0C19.3427 0 18.8403 0.675107 18.1285 1.18144V1.22363V1.35021Z" fill="#BD8B13"/>
<path d="M15.1978 7.13083C15.1978 7.13083 15.1141 7.80594 16.4957 7.80594C17.6261 7.80594 17.668 7.08866 17.668 7.08866V4.47263C17.668 4.30383 17.6261 3.8397 17.1656 3.8397H13.2301V3.54435C13.2301 3.45994 13.2719 3.45997 13.3557 3.41777C13.565 3.29118 13.6069 3.1646 13.565 3.08021C13.1045 2.82705 12.6439 2.23633 12.6439 2.23633V4.5148H16.5794H16.6213C16.7469 4.5148 16.9144 4.55701 16.9144 4.81018V6.6667C16.9144 6.6667 16.9144 7.04645 16.5376 7.04645C15.9096 7.04645 15.9514 6.7089 15.9514 6.7089V5.69625H12.6439V6.49794H15.2397V7.13083H15.1978Z" fill="#BD8B13"/>
<path d="M31.6519 1.85662C31.6519 1.64566 31.7775 1.60346 31.8613 1.56127C31.945 1.51907 32.0287 1.47688 32.0706 1.30811V1.26591C32.0706 1.18152 32.0287 1.18152 31.945 1.13933C31.8613 1.09713 31.7357 1.01274 31.4845 0.801773C31.0658 0.464218 30.9821 0.295443 30.9821 0.295443L30.8564 0.0844727V6.49799H31.6519C31.6519 6.45579 31.6519 1.98321 31.6519 1.85662Z" fill="#BD8B13"/>
<path d="M28.9722 7.29968L28.4279 7.8482L27.8836 7.29968L28.4279 6.75117L28.9722 7.29968ZM27.1719 7.29968L28.4698 8.60768L29.7676 7.29968L28.9722 6.49799L29.9351 5.48534V0.0844727C29.9351 0.0844727 29.5583 0.886166 28.9303 1.30811V1.3503C28.9303 1.47688 29.0141 1.51907 29.0978 1.56127C29.1815 1.60346 29.2652 1.68785 29.2652 1.85662C29.2652 2.0254 29.2652 5.10558 29.2652 5.10558L28.4698 5.94948L27.6743 5.10558C27.6743 5.06337 27.6743 1.98321 27.6743 1.85662C27.6743 1.64566 27.758 1.60346 27.8418 1.56127C27.9255 1.51907 27.9674 1.47688 28.0092 1.3503V1.30811C27.4231 0.886166 27.0044 0.0844727 27.0044 0.0844727V5.56972L27.9674 6.54017L27.1719 7.29968Z" fill="#BD8B13"/>
<path d="M24.8692 10.1265L25.0786 10.2531C25.1204 10.2953 25.1205 10.2953 25.1205 10.3375V12.0253H21.478L20.6406 13.0801V10.3375V10.2953L20.6825 10.2531L20.85 10.1265V9.95776H19.0078V10.1265L19.1753 10.2531L19.2172 10.2953V15.3164V15.4008L19.1753 15.443L19.0078 15.5696V15.7383H20.85V15.5696L20.6406 15.443L20.5988 15.4008V13.1223L20.8081 13.1645L21.0593 13.0379L21.1849 12.9957C21.1849 12.9957 21.2268 12.9957 21.2686 12.9957H25.0786V14.7679L26.4602 13.2911V10.3797L26.5021 10.3375L26.7114 10.2531V10.0843H24.8692V10.1265Z" fill="#BD8B13"/>
<path d="M44.5469 12.1941C44.3375 11.519 43.8351 10.9705 43.0813 10.5485C42.4117 10.1688 41.4486 10 40.1506 10H35.1686V10.1688L35.3779 10.2953V10.8861H40.1089C41.072 10.8861 41.7837 11.0127 42.2024 11.2658C42.872 11.6456 43.2072 12.1941 43.2072 12.827C43.2072 13.1646 43.1234 13.4599 42.9558 13.7553C42.7886 14.0084 42.4955 14.2616 42.1603 14.4304C41.7 14.6836 40.9882 14.8101 40.0672 14.8101H37.5969V11.308H36.2572V15.3164V15.3587L36.2151 15.4009L36.0479 15.4852V15.654H40.1089C40.9044 15.654 41.4906 15.6118 41.951 15.5274C42.5372 15.4009 43.0813 15.1899 43.5003 14.8945C43.9606 14.5992 44.2958 14.2194 44.4631 13.8397C44.5886 13.5443 44.6724 13.249 44.6724 12.9114C44.6306 12.6582 44.5886 12.4051 44.5469 12.1941Z" fill="#BD8B13"/>
<path d="M29.2656 11.0127L24.8276 15.654H26.8792V15.4431H26.7954H26.7117H26.6279L30.0192 11.8566L29.2656 11.0127Z" fill="#BD8B13"/>
<path d="M33.7451 15.4852V15.6962H35.7545L30.3957 10L29.6002 10.8439L30.4794 11.7721L31.4005 12.7004H29.8514L29.014 13.5865L29.1815 13.7131L29.3909 13.5865H29.4327C29.4327 13.5865 29.5165 13.5865 29.5583 13.5865H32.1541L33.9544 15.5274C33.9544 15.5274 33.9126 15.5696 33.7869 15.5696H33.7451V15.4852Z" fill="#BD8B13"/>
<path d="M18.2124 10.2531L18.3799 10.1265V9.95776H16.5796V10.1265L16.7471 10.2531L16.8308 10.3375V15.2742V15.3586L16.7889 15.4008L16.5796 15.4852V15.654H18.3799V15.4852L18.2124 15.4008L18.1706 15.3586V10.3375V10.2953L18.2124 10.2531Z" fill="#BD8B13"/>
<path d="M9.25269 14.5569H9.16897H8.95962L8.70841 14.6835C8.66655 14.7257 8.62469 14.7257 8.58283 14.7257H4.52169C3.60059 14.7257 2.88884 14.5991 2.4283 14.3459C1.71656 13.9662 1.38162 13.4598 1.38162 12.7425C1.38162 12.4472 1.46536 12.1096 1.6747 11.8565C2.00963 11.3501 2.51204 10.9704 3.26565 10.8438C3.475 10.8016 3.64245 10.8016 3.76807 10.8016H5.86145C5.98703 10.8016 5.98703 10.8438 5.98703 10.8438L5.94517 11.0126H6.11262L6.99186 9.91553H4.47979C3.89365 9.91553 3.43313 9.91553 3.14005 9.95773C2.97258 9.95773 2.80511 9.99991 2.67951 10.0421C2.26084 10.1265 1.88402 10.2953 1.50722 10.5063C0.879203 10.8438 0.460541 11.3079 0.209337 11.8143C0.0837348 12.1096 0 12.4472 0 12.8269C0 13.7552 0.50241 14.4725 1.46536 15.021C1.88403 15.2742 2.38644 15.443 2.93072 15.5274C3.34939 15.6117 3.89365 15.6117 4.56355 15.6117H8.33162L9.25269 14.5569Z" fill="#BD8B13"/>
<path d="M7.20105 13.2067L8.08026 12.1096H2.17696L1.59082 12.9957H6.90798C6.99171 12.9957 7.03357 13.0379 7.03357 13.0379L6.99171 13.2067H7.20105Z" fill="#BD8B13"/>
<path d="M7.66156 9.95776L6.82422 11.0126L6.99167 11.0548H7.03356L7.28477 10.9282C7.36849 10.886 7.41036 10.8438 7.49408 10.8438H10.7597V15.2742V15.3164L10.7179 15.3586L10.5504 15.4852V15.654H12.3926V15.4852L12.2251 15.3586L12.1832 15.3164V15.2742V10.8438H15.0721C15.1977 10.8438 15.1977 10.886 15.1977 10.886V11.0548H15.3651L16.2444 9.95776H7.66156Z" fill="#BD8B13"/>
</svg>
